<svg xmlns="http://www.w3.org/2000/svg" width="40" height="41" viewBox="0 0 40 41">
    <g fill="none" fill-rule="evenodd">
        <path fill="#FFF" d="M0 19.672C0 8.808 8.82 0 19.7 0c10.88 0 19.701 8.808 19.701 19.672 0 10.865-8.82 19.672-19.7 19.672C8.82 39.344 0 30.537 0 19.672z" transform="translate(0 .818)"/>
        <g>
            <path fill="#EA4335" d="M8.525 3.296c1.6 0 2.68.692 3.296 1.27l2.406-2.35C12.749.843 10.827 0 8.525 0 5.19 0 2.31 1.913.909 4.698l2.757 2.14c.691-2.055 2.604-3.542 4.859-3.542z" transform="translate(0 .818) translate(11.148 11.148)"/>
            <path fill="#4285F4" d="M16.708 8.714c0-.7-.057-1.212-.18-1.743H8.525v3.164h4.698c-.095.786-.607 1.97-1.743 2.766l2.69 2.083c1.61-1.487 2.538-3.675 2.538-6.27z" transform="translate(0 .818) translate(11.148 11.148)"/>
            <path fill="#FBBC05" d="M3.675 10.21c-.18-.53-.284-1.098-.284-1.685 0-.588.104-1.156.275-1.686L.909 4.698C.332 5.854 0 7.151 0 8.525c0 1.373.332 2.67.91 3.826l2.765-2.14z" transform="translate(0 .818) translate(11.148 11.148)"/>
            <path fill="#34A853" d="M8.525 17.05c2.301 0 4.233-.759 5.645-2.066l-2.69-2.083c-.72.502-1.686.852-2.955.852-2.255 0-4.168-1.487-4.85-3.542L.919 12.35C2.32 15.136 5.19 17.05 8.525 17.05z" transform="translate(0 .818) translate(11.148 11.148)"/>
            <path d="M0 0L17.049 0 17.049 17.049 0 17.049z" transform="translate(0 .818) translate(11.148 11.148)"/>
        </g>
    </g>
</svg>
